<svg width="143" height="28" viewBox="0 0 143 28" fill="none" xmlns="http://www.w3.org/2000/svg">
<path d="M36.7723 20.125L42.5202 7.6125L46.9293 7.6125L52.6772 20.125L49.5712 20.125L48.3574 17.4825L41.0921 17.4825L39.8783 20.125L36.7723 20.125ZM42.1275 15.2075L47.322 15.2075L44.8408 9.8L44.6087 9.8L42.1275 15.2075Z" fill="#E1D1FE"/>
<path d="M53.8399 20.125L53.8399 11.1125L65.7462 11.1125C66.7935 11.1125 67.5611 11.3692 68.049 11.8825C68.5369 12.3842 68.7808 13.0492 68.7808 13.8775L68.7808 20.125L66.1925 20.125L66.1925 14.1925C66.1925 13.4808 65.8236 13.125 65.0858 13.125L62.6045 13.125L62.6045 20.125L60.0162 20.125L60.0162 13.125L56.4282 13.125L56.4282 20.125L53.8399 20.125Z" fill="#E1D1FE"/>
<path d="M75.3746 20.2125C73.7799 20.2125 72.5363 19.8275 71.6438 19.0575C70.7513 18.2758 70.305 17.1325 70.305 15.6275C70.305 14.1108 70.7513 12.9675 71.6438 12.1975C72.5363 11.4158 73.7799 11.025 75.3746 11.025L79.8372 11.025C80.8845 11.025 81.6818 11.27 82.2292 11.76C82.7885 12.2383 83.0682 12.9267 83.0682 13.825C83.0682 15.6567 81.9912 16.5725 79.8372 16.5725L73.0897 16.5725C73.3396 17.6575 74.1012 18.2 75.3746 18.2L82.6041 18.2L82.6041 20.2125L75.3746 20.2125ZM75.3746 13.0375C74.1488 13.0375 73.3931 13.545 73.1075 14.56L79.7123 14.56C79.9503 14.56 80.1347 14.49 80.2656 14.35C80.4084 14.21 80.4798 14.0175 80.4798 13.7725C80.4798 13.2825 80.224 13.0375 79.7123 13.0375L75.3746 13.0375Z" fill="#E1D1FE"/>
<path d="M89.8101 20.125C88.7748 20.125 88.0132 19.8742 87.5253 19.3725C87.0374 18.8592 86.7934 18.1883 86.7934 17.36L86.7934 13.125L84.1336 13.125L84.1336 11.1125L86.7934 11.1125L86.7934 8.3475L89.3817 8.3475L89.3817 11.1125L93.2018 11.1125L93.2018 13.125L89.3817 13.125L89.3817 17.045C89.3817 17.7567 89.7387 18.1125 90.4528 18.1125L93.7016 18.1125L93.7016 20.125L89.8101 20.125Z" fill="#E1D1FE"/>
<path d="M95.0323 20.125L95.0323 7.6125L97.6206 7.6125L97.6206 11.1125L103.047 11.1125C104.094 11.1125 104.856 11.3692 105.332 11.8825C105.82 12.3842 106.064 13.0492 106.064 13.8775L106.064 20.125L103.476 20.125L103.476 14.175C103.476 13.475 103.119 13.125 102.405 13.125L97.6206 13.125L97.6206 20.125L95.0323 20.125Z" fill="#E1D1FE"/>
<path d="M110.003 24.0625L110.003 22.05L115.394 22.05C116.108 22.05 116.465 21.6942 116.465 20.9825L116.465 20.125L110.949 20.125C109.902 20.125 109.134 19.8683 108.646 19.355C108.17 18.8417 107.932 18.1767 107.932 17.36L107.932 11.1125L110.521 11.1125L110.521 17.0625C110.521 17.7625 110.878 18.1125 111.592 18.1125L116.376 18.1125L116.376 11.1125L119.053 11.1125L119.053 21.2975C119.053 22.1258 118.809 22.7908 118.321 23.2925C117.833 23.8058 117.072 24.0625 116.036 24.0625L110.003 24.0625Z" fill="#E1D1FE"/>
<path d="M120.72 20.2125L120.72 18.2L129.467 18.2C129.967 18.2 130.217 17.9258 130.217 17.3775C130.217 16.8408 129.967 16.5725 129.467 16.5725L123.808 16.5725C122.749 16.5725 121.946 16.3392 121.399 15.8725C120.851 15.3942 120.578 14.7117 120.578 13.825C120.578 12.9267 120.851 12.2383 121.399 11.76C121.958 11.27 122.761 11.025 123.808 11.025L131.948 11.025L131.948 13.0375L123.933 13.0375C123.422 13.0375 123.166 13.2825 123.166 13.7725C123.166 14.0175 123.237 14.21 123.38 14.35C123.523 14.49 123.707 14.56 123.933 14.56L129.931 14.56C130.859 14.56 131.568 14.7992 132.055 15.2775C132.555 15.7442 132.805 16.4267 132.805 17.325C132.805 18.235 132.555 18.9467 132.055 19.46C131.556 19.9617 130.848 20.2125 129.931 20.2125L120.72 20.2125Z" fill="#E1D1FE"/>
<path d="M139.109 20.125C138.073 20.125 137.312 19.8742 136.824 19.3725C136.336 18.8592 136.092 18.1883 136.092 17.36L136.092 13.125L133.432 13.125L133.432 11.1125L136.092 11.1125L136.092 8.3475L138.68 8.3475L138.68 11.1125L142.5 11.1125L142.5 13.125L138.68 13.125L138.68 17.045C138.68 17.7567 139.037 18.1125 139.751 18.1125L143 18.1125L143 20.125L139.109 20.125Z" fill="#E1D1FE"/>
<path fill-rule="evenodd" clip-rule="evenodd" d="M27.9326 12.5129C28.7705 13.3342 28.7705 14.6658 27.9326 15.4871L15.7974 27.3839C14.9596 28.2054 13.6013 28.2054 12.7636 27.3839L0.628322 15.4871C-0.20944 14.6658 -0.209442 13.3342 0.628322 12.5129L2.90369 10.2822L12.7636 19.9484C13.6013 20.7697 14.9596 20.7697 15.7974 19.9484L20.3481 15.4871C21.1858 14.6658 21.1858 13.3342 20.3481 12.5129L10.4882 2.84665L12.7636 0.615982C13.6013 -0.205326 14.9596 -0.205328 15.7974 0.615982L27.9326 12.5129Z" fill="#5456A7"/>
<path fill-rule="evenodd" clip-rule="evenodd" d="M0.628322 12.5129C-0.209442 13.3342 -0.20944 14.6658 0.628322 15.4871L12.7636 27.3839C13.6013 28.2054 14.9596 28.2054 15.7974 27.3839L18.0727 25.1534L8.21285 15.4871C7.37509 14.6658 7.37509 13.3342 8.21285 12.5129L18.0727 2.84665L15.7974 0.615982C14.9596 -0.205328 13.6013 -0.205326 12.7636 0.615982L0.628322 12.5129Z" fill="#7768B9"/>
<path fill-rule="evenodd" clip-rule="evenodd" d="M15.7974 0.615982C14.9596 -0.205328 13.6013 -0.205326 12.7636 0.615982L0.628322 12.5129C-0.209442 13.3342 -0.20944 14.6658 0.628322 15.4871L2.90369 17.7177L12.7636 8.05153C13.6013 7.23023 14.9596 7.23023 15.7974 8.05153L25.6573 17.7177L27.9326 15.4871C28.7705 14.6658 28.7705 13.3342 27.9326 12.5129L15.7974 0.615982Z" fill="#A68CDA"/>
</svg>
