<svg width="161" height="32" viewBox="0 0 161 32" fill="none" xmlns="http://www.w3.org/2000/svg">
<path d="M41.2 23L47.64 8.7H52.58L59.02 23H55.54L54.18 19.98H46.04L44.68 23H41.2ZM47.2 17.38H53.02L50.24 11.2H49.98L47.2 17.38ZM60.3227 23V12.7H73.6627C74.836 12.7 75.696 12.9933 76.2427 13.58C76.7893 14.1533 77.0627 14.9133 77.0627 15.86V23H74.1627V16.22C74.1627 15.4067 73.7493 15 72.9227 15H70.1427V23H67.2427V15H63.2227V23H60.3227ZM84.4503 23.1C82.6636 23.1 81.2703 22.66 80.2703 21.78C79.2703 20.8867 78.7703 19.58 78.7703 17.86C78.7703 16.1267 79.2703 14.82 80.2703 13.94C81.2703 13.0467 82.6636 12.6 84.4503 12.6H89.4503C90.6236 12.6 91.517 12.88 92.1303 13.44C92.757 13.9867 93.0703 14.7733 93.0703 15.8C93.0703 17.8933 91.8636 18.94 89.4503 18.94H81.8903C82.1703 20.18 83.0236 20.8 84.4503 20.8H92.5503V23.1H84.4503ZM84.4503 14.9C83.077 14.9 82.2303 15.48 81.9103 16.64H89.3103C89.577 16.64 89.7836 16.56 89.9303 16.4C90.0903 16.24 90.1703 16.02 90.1703 15.74C90.1703 15.18 89.8836 14.9 89.3103 14.9H84.4503ZM100.624 23C99.4641 23 98.6107 22.7133 98.0641 22.14C97.5174 21.5533 97.2441 20.7867 97.2441 19.84V15H94.2641V12.7H97.2441V9.54H100.144V12.7H104.424V15H100.144V19.48C100.144 20.2933 100.544 20.7 101.344 20.7H104.984V23H100.624ZM106.475 23V8.7H109.375V12.7H115.455C116.628 12.7 117.482 12.9933 118.015 13.58C118.562 14.1533 118.835 14.9133 118.835 15.86V23H115.935V16.2C115.935 15.4 115.535 15 114.735 15H109.375V23H106.475ZM123.248 27.5V25.2H129.288C130.088 25.2 130.488 24.7933 130.488 23.98V23H124.308C123.135 23 122.275 22.7067 121.728 22.12C121.195 21.5333 120.928 20.7733 120.928 19.84V12.7H123.828V19.5C123.828 20.3 124.228 20.7 125.028 20.7H130.388V12.7H133.388V24.34C133.388 25.2867 133.115 26.0467 132.568 26.62C132.021 27.2067 131.168 27.5 130.008 27.5H123.248ZM135.256 23.1V20.8H145.056C145.616 20.8 145.896 20.4867 145.896 19.86C145.896 19.2467 145.616 18.94 145.056 18.94H138.716C137.529 18.94 136.629 18.6733 136.016 18.14C135.403 17.5933 135.096 16.8133 135.096 15.8C135.096 14.7733 135.403 13.9867 136.016 13.44C136.643 12.88 137.543 12.6 138.716 12.6H147.836V14.9H138.856C138.283 14.9 137.996 15.18 137.996 15.74C137.996 16.02 138.076 16.24 138.236 16.4C138.396 16.56 138.603 16.64 138.856 16.64H145.576C146.616 16.64 147.409 16.9133 147.956 17.46C148.516 17.9933 148.796 18.7733 148.796 19.8C148.796 20.84 148.516 21.6533 147.956 22.24C147.396 22.8133 146.603 23.1 145.576 23.1H135.256ZM155.858 23C154.698 23 153.845 22.7133 153.298 22.14C152.752 21.5533 152.478 20.7867 152.478 19.84V15H149.498V12.7H152.478V9.54H155.378V12.7H159.658V15H155.378V19.48C155.378 20.2933 155.778 20.7 156.578 20.7H160.218V23H155.858Z" fill="#19192F"/>
<path fill-rule="evenodd" clip-rule="evenodd" d="M31.2959 14.3004C32.2347 15.239 32.2347 16.7609 31.2959 17.6995L17.6995 31.2959C16.7609 32.2347 15.2391 32.2347 14.3004 31.2959L0.703979 17.6995C-0.234656 16.7609 -0.234658 15.2391 0.703979 14.3004L3.25332 11.7511L14.3004 22.7982C15.2391 23.7368 16.7609 23.7368 17.6995 22.7982L22.7982 17.6995C23.7368 16.7609 23.7368 15.239 22.7982 14.3004L11.7511 3.25332L14.3004 0.703979C15.2391 -0.234658 16.7609 -0.234661 17.6995 0.703979L31.2959 14.3004Z" fill="#5456A7"/>
<path fill-rule="evenodd" clip-rule="evenodd" d="M0.703979 14.3004C-0.234661 15.2391 -0.234658 16.7609 0.703979 17.6995L14.3004 31.2959C15.2391 32.2347 16.7609 32.2347 17.6995 31.2959L20.2488 28.7467L9.20175 17.6995C8.26312 16.7609 8.26312 15.2391 9.20175 14.3004L20.2488 3.25332L17.6995 0.703979C16.7609 -0.234658 15.239 -0.234658 14.3004 0.703979L0.703979 14.3004Z" fill="#6669D3"/>
<path fill-rule="evenodd" clip-rule="evenodd" d="M17.6995 0.703979C16.7609 -0.234661 15.2391 -0.234658 14.3004 0.703979L0.703979 14.3004C-0.234658 15.2391 -0.234661 16.7609 0.703979 17.6995L3.25332 20.2488L14.3004 9.20175C15.2391 8.26312 16.7609 8.26312 17.6995 9.20175L28.7467 20.2488L31.2959 17.6995C32.2347 16.7609 32.2347 15.239 31.2959 14.3004L17.6995 0.703979Z" fill="#868AFF"/>
</svg>
