<svg width="143" height="28" viewBox="0 0 143 28" fill="none" xmlns="http://www.w3.org/2000/svg">
<g clip-path="url(#clip0_2699_6895)">
<path d="M36.7722 20.1248L42.5201 7.6123H46.9292L52.6771 20.1248H49.5711L48.3573 17.4823H41.092L39.8782 20.1248H36.7722ZM42.1274 15.2073H47.3219L44.8407 9.7998H44.6086L42.1274 15.2073Z" fill="#08080B"/>
<path d="M53.8398 20.1248V11.1123H65.7461C66.7934 11.1123 67.561 11.369 68.0489 11.8823C68.5368 12.384 68.7807 13.049 68.7807 13.8773V20.1248H66.1924V14.1923C66.1924 13.4806 65.8235 13.1248 65.0857 13.1248H62.6044V20.1248H60.0161V13.1248H56.4281V20.1248H53.8398Z" fill="#08080B"/>
<path d="M75.3745 20.2124C73.7798 20.2124 72.5362 19.8274 71.6437 19.0574C70.7512 18.2757 70.3049 17.1324 70.3049 15.6274C70.3049 14.1107 70.7512 12.9674 71.6437 12.1974C72.5362 11.4157 73.7798 11.0249 75.3745 11.0249H79.8371C80.8844 11.0249 81.6817 11.2699 82.2291 11.7599C82.7884 12.2382 83.0681 12.9266 83.0681 13.8249C83.0681 15.6566 81.9911 16.5724 79.8371 16.5724H73.0896C73.3395 17.6574 74.1011 18.1999 75.3745 18.1999H82.604V20.2124H75.3745ZM75.3745 13.0374C74.1487 13.0374 73.393 13.5449 73.1074 14.5599H79.7122C79.9502 14.5599 80.1346 14.4899 80.2655 14.3499C80.4083 14.2099 80.4797 14.0174 80.4797 13.7724C80.4797 13.2824 80.2239 13.0374 79.7122 13.0374H75.3745Z" fill="#08080B"/>
<path d="M89.81 20.1252C88.7747 20.1252 88.0131 19.8744 87.5252 19.3727C87.0373 18.8594 86.7934 18.1885 86.7934 17.3602V13.1252H84.1335V11.1127H86.7934V8.34766H89.3816V11.1127H93.2017V13.1252H89.3816V17.0452C89.3816 17.7569 89.7386 18.1127 90.4527 18.1127H93.7015V20.1252H89.81Z" fill="#08080B"/>
<path d="M95.0322 20.1248V7.6123H97.6205V11.1123H103.047C104.094 11.1123 104.856 11.369 105.332 11.8823C105.82 12.384 106.064 13.049 106.064 13.8773V20.1248H103.476V14.1748C103.476 13.4748 103.119 13.1248 102.405 13.1248H97.6205V20.1248H95.0322Z" fill="#08080B"/>
<path d="M110.003 24.0623V22.0498H115.394C116.108 22.0498 116.465 21.694 116.465 20.9823V20.1248H110.949C109.902 20.1248 109.134 19.8681 108.646 19.3548C108.17 18.8415 107.932 18.1765 107.932 17.3598V11.1123H110.521V17.0623C110.521 17.7623 110.878 18.1123 111.592 18.1123H116.376V11.1123H119.053V21.2973C119.053 22.1256 118.809 22.7906 118.321 23.2923C117.833 23.8056 117.072 24.0623 116.036 24.0623H110.003Z" fill="#08080B"/>
<path d="M120.72 20.2124V18.1999H129.467C129.967 18.1999 130.217 17.9257 130.217 17.3774C130.217 16.8407 129.967 16.5724 129.467 16.5724H123.808C122.749 16.5724 121.946 16.3391 121.399 15.8724C120.851 15.3941 120.578 14.7116 120.578 13.8249C120.578 12.9266 120.851 12.2382 121.399 11.7599C121.958 11.2699 122.761 11.0249 123.808 11.0249H131.948V13.0374H123.933C123.422 13.0374 123.166 13.2824 123.166 13.7724C123.166 14.0174 123.237 14.2099 123.38 14.3499C123.523 14.4899 123.707 14.5599 123.933 14.5599H129.931C130.859 14.5599 131.568 14.7991 132.055 15.2774C132.555 15.7441 132.805 16.4266 132.805 17.3249C132.805 18.2349 132.555 18.9466 132.055 19.4599C131.556 19.9616 130.848 20.2124 129.931 20.2124H120.72Z" fill="#08080B"/>
<path d="M139.109 20.1252C138.073 20.1252 137.312 19.8744 136.824 19.3727C136.336 18.8594 136.092 18.1885 136.092 17.3602V13.1252H133.432V11.1127H136.092V8.34766H138.68V11.1127H142.5V13.1252H138.68V17.0452C138.68 17.7569 139.037 18.1127 139.751 18.1127H143V20.1252H139.109Z" fill="#08080B"/>
<path fill-rule="evenodd" clip-rule="evenodd" d="M27.9326 12.5129C28.7705 13.3342 28.7705 14.6658 27.9326 15.4871L15.7974 27.3839C14.9596 28.2054 13.6013 28.2054 12.7636 27.3839L0.628322 15.4871C-0.20944 14.6658 -0.209442 13.3342 0.628322 12.5129L2.90369 10.2822L12.7636 19.9484C13.6013 20.7697 14.9596 20.7697 15.7974 19.9484L20.3481 15.4871C21.1858 14.6658 21.1858 13.3342 20.3481 12.5129L10.4882 2.84665L12.7636 0.615982C13.6013 -0.205326 14.9596 -0.205328 15.7974 0.615982L27.9326 12.5129Z" fill="#5456A7"/>
<path fill-rule="evenodd" clip-rule="evenodd" d="M0.628322 12.5129C-0.209442 13.3342 -0.20944 14.6658 0.628322 15.4871L12.7636 27.3839C13.6013 28.2054 14.9596 28.2054 15.7974 27.3839L18.0727 25.1534L8.21285 15.4871C7.37509 14.6658 7.37509 13.3342 8.21285 12.5129L18.0727 2.84665L15.7974 0.615982C14.9596 -0.205328 13.6013 -0.205326 12.7636 0.615982L0.628322 12.5129Z" fill="#7768B9"/>
<path fill-rule="evenodd" clip-rule="evenodd" d="M15.7974 0.615982C14.9596 -0.205328 13.6013 -0.205326 12.7636 0.615982L0.628322 12.5129C-0.209442 13.3342 -0.20944 14.6658 0.628322 15.4871L2.90369 17.7177L12.7636 8.05153C13.6013 7.23023 14.9596 7.23023 15.7974 8.05153L25.6573 17.7177L27.9326 15.4871C28.7705 14.6658 28.7705 13.3342 27.9326 12.5129L15.7974 0.615982Z" fill="#A68CDA"/>
</g>
<defs>
<clipPath id="clip0_2699_6895">
<rect width="143" height="28" fill="white"/>
</clipPath>
</defs>
</svg>
