<svg
    version="1.1"
    xmlns="http://www.w3.org/2000/svg"
    xmlns:xlink="http://www.w3.org/1999/xlink"
    viewBox="0 0 171 171"
    width="16"
    height="16"
  >
    <g
      fill="none"
      fill-rule="nonzero"
      stroke="none"
      stroke-width="1"
      stroke-linecap="butt"
      stroke-linejoin="miter"
      stroke-miterlimit="10"
      stroke-dasharray=""
      stroke-dashoffset="0"
      font-family="none"
      font-weight="none"
      font-size="none"
      text-anchor="none"
      style="mix-blend-mode: normal"
    >
      <path
        d="M0,171.98863v-171.98863h171.98863v171.98863z"
        fill="none"
      />
      <g fill="#8a8b8d">
        <path
          d="M28.5,21.375c-2.56953,-0.03634 -4.95958,1.31367 -6.25495,3.53309c-1.29537,2.21942 -1.29537,4.96439 0,7.18381c1.29537,2.21942 3.68542,3.56943 6.25495,3.53309h49.875v64.125h-9.97778c-2.30138,0 -4.37675,1.39038 -5.26025,3.52075c-0.29213,0.70537 -0.4314,1.45094 -0.4314,2.18481c0,1.482 0.57267,2.92448 1.66992,4.02173l17.10278,17.10279c2.223,2.23012 5.82725,2.23012 8.05737,0l17.10279,-17.10279c1.6245,-1.63162 2.10098,-4.06904 1.22461,-6.20654c-0.8835,-2.13038 -2.95888,-3.52075 -5.26025,-3.52075h-9.97779v-64.125c0,-7.78807 -6.46193,-14.25 -14.25,-14.25zM28.5,135.375c-2.56953,-0.03634 -4.95958,1.31367 -6.25495,3.53309c-1.29537,2.21942 -1.29537,4.96439 0,7.18381c1.29537,2.21942 3.68542,3.56943 6.25495,3.53309h35.625c2.56953,0.03634 4.95958,-1.31367 6.25495,-3.53309c1.29537,-2.21942 1.29537,-4.96439 0,-7.18381c-1.29537,-2.21942 -3.68542,-3.56943 -6.25495,-3.53309zM106.875,135.375c-2.56953,-0.03634 -4.95958,1.31367 -6.25495,3.53309c-1.29537,2.21942 -1.29537,4.96439 0,7.18381c1.29537,2.21942 3.68542,3.56943 6.25495,3.53309h35.625c2.56953,0.03634 4.95958,-1.31367 6.25495,-3.53309c1.29537,-2.21942 1.29537,-4.96439 0,-7.18381c-1.29537,-2.21942 -3.68542,-3.56943 -6.25495,-3.53309z"
        />
      </g>
    </g>
  </svg>