<svg width="20" height="15" viewBox="0 0 20 15" fill="none" xmlns="http://www.w3.org/2000/svg">
<g clip-path="url(#clip0_270_60977)">
<rect width="20" height="15" fill="white"/>
<path d="M0 0V5H20V0L0 0Z" fill="#002488"/>
<path d="M0.00043726 5V15H20.0004V5L0.00043726 5Z" fill="#DA121A"/>
<path d="M3.46773 0.708386C3.22695 1.10545 3.19822 1.42306 3.36255 1.9715C3.44168 2.22744 3.52859 2.60964 3.56511 2.81683C3.6138 3.10933 3.6087 3.13713 3.61554 3.20073C3.6764 3.20073 3.81472 3.20096 3.87867 3.20058C3.88787 3.09931 3.89531 2.98243 3.9169 2.8217C3.94207 2.63429 4.01674 2.24233 4.09705 1.97009C4.25753 1.42607 4.24678 1.09229 3.99724 0.71448C3.90595 0.574323 3.78422 0.458542 3.72944 0.458542C3.67466 0.458542 3.55075 0.565551 3.46773 0.708386Z" fill="#FCDD09"/>
<path d="M3.99238 2.94089C3.9717 3.04566 3.96665 3.08264 3.95628 3.20072C4.03006 3.20102 4.05905 3.20152 4.13097 3.20109C4.14671 3.12166 4.15805 3.07972 4.19274 2.96697C4.33029 2.5309 4.7354 2.35589 4.71714 2.76417C4.71105 2.8769 4.66353 2.93985 4.61063 3.00028C4.67602 2.98396 4.81489 2.91907 4.92749 2.85509C5.55438 2.47728 5.30751 1.55151 4.65019 1.83182C4.30935 1.97807 4.10435 2.38294 3.99238 2.94089Z" fill="#FCDD09"/>
<path d="M3.25745 3.36527C3.53252 3.36686 4.00793 3.36971 4.23627 3.36812C4.23653 3.29187 4.23739 3.33078 4.23795 3.26917C4.06984 3.26735 3.42612 3.27036 3.25875 3.27036C3.25913 3.31022 3.25837 3.32952 3.25745 3.36527L3.25745 3.36527Z" fill="#FCDD09"/>
<path d="M3.08429 3.85255C3.08429 3.85255 3.22131 3.86797 3.3491 3.85864C3.47689 3.84931 3.54779 3.83334 3.62331 3.79661C3.60281 3.94907 3.60163 4.0963 3.60163 4.0963C3.62021 4.2925 3.64124 4.34271 3.68374 4.4382C3.7414 4.51786 3.77493 4.5183 3.81731 4.43418C3.86312 4.34 3.89328 4.24314 3.90285 4.09538C3.89952 3.98464 3.89334 3.93389 3.86714 3.79851C3.95556 3.83682 4.0114 3.84675 4.14331 3.85864C4.2783 3.87081 4.40237 3.86484 4.40237 3.86484C4.40237 3.86484 4.22003 3.77323 4.13978 3.66087C4.06056 3.54995 4.07746 3.56881 4.01985 3.42593C3.94986 3.42261 3.59498 3.42587 3.48239 3.42587C3.42072 3.55614 3.41452 3.58334 3.33834 3.66554C3.23919 3.77255 3.08429 3.85255 3.08429 3.85255Z" fill="#FCDD09"/>
<path d="M2.83728 1.83162C3.17811 1.97787 3.38311 2.38274 3.49509 2.94069C3.51577 3.04546 3.52081 3.08244 3.53118 3.20052C3.45741 3.20082 3.42841 3.20133 3.3565 3.20089C3.34075 3.12146 3.32942 3.07952 3.29472 2.96677C3.15718 2.5307 2.75207 2.35569 2.77033 2.76397C2.77641 2.8767 2.82393 2.93965 2.87683 3.00009C2.81144 2.98376 2.67258 2.91887 2.55998 2.85489C1.93308 2.47708 2.17995 1.55131 2.83728 1.83162V1.83162Z" fill="#FCDD09"/>
<path d="M9.76773 0.708386C9.52695 1.10545 9.49822 1.42306 9.66255 1.9715C9.74168 2.22744 9.82859 2.60964 9.86511 2.81683C9.9138 3.10933 9.9087 3.13713 9.91554 3.20073C9.9764 3.20073 10.1147 3.20096 10.1787 3.20058C10.1879 3.09931 10.1953 2.98243 10.2169 2.8217C10.2421 2.63429 10.3167 2.24233 10.397 1.97009C10.5575 1.42607 10.5468 1.09229 10.2972 0.71448C10.2059 0.574323 10.0842 0.458542 10.0294 0.458542C9.97466 0.458542 9.85075 0.565551 9.76773 0.708386Z" fill="#FCDD09"/>
<path d="M10.9502 1.83182C10.6094 1.97807 10.4044 2.38294 10.2924 2.94089C10.2717 3.04566 10.2667 3.08264 10.2563 3.20072C10.3301 3.20102 10.3591 3.20152 10.431 3.20109C10.4467 3.12166 10.458 3.07972 10.4927 2.96697C10.6303 2.5309 11.0354 2.35589 11.0171 2.76417C11.0111 2.8769 10.9635 2.93985 10.9106 3.00028C10.976 2.98396 11.1149 2.91907 11.2275 2.85509C11.8544 2.47728 11.6075 1.55151 10.9502 1.83182V1.83182Z" fill="#FCDD09"/>
<path d="M9.55745 3.36527C9.83252 3.36686 10.3079 3.36971 10.5363 3.36812C10.5365 3.29187 10.5374 3.33078 10.5379 3.26917C10.3698 3.26735 9.72613 3.27036 9.55875 3.27036C9.55913 3.31022 9.55837 3.32952 9.55745 3.36527L9.55745 3.36527Z" fill="#FCDD09"/>
<path d="M9.63834 3.66554C9.53919 3.77255 9.38429 3.85255 9.38429 3.85255C9.38429 3.85255 9.52131 3.86797 9.6491 3.85864C9.77689 3.84931 9.84779 3.83334 9.92331 3.79661C9.90281 3.94907 9.90163 4.0963 9.90163 4.0963C9.92022 4.2925 9.94124 4.34271 9.98374 4.4382C10.0414 4.51786 10.0749 4.5183 10.1173 4.43418C10.1631 4.34 10.1933 4.24314 10.2028 4.09538C10.1995 3.98464 10.1933 3.93389 10.1671 3.79851C10.2556 3.83682 10.3114 3.84675 10.4433 3.85864C10.5783 3.87081 10.7024 3.86484 10.7024 3.86484C10.7024 3.86484 10.52 3.77323 10.4398 3.66087C10.3606 3.54995 10.3775 3.56881 10.3199 3.42593C10.2499 3.42261 9.89498 3.42587 9.78239 3.42587C9.72072 3.55614 9.71452 3.58334 9.63834 3.66554V3.66554Z" fill="#FCDD09"/>
<path d="M9.13728 1.83162C9.47811 1.97787 9.68311 2.38274 9.79509 2.94069C9.81577 3.04546 9.82081 3.08244 9.83118 3.20052C9.75741 3.20082 9.72841 3.20133 9.6565 3.20089C9.64075 3.12146 9.62942 3.07952 9.59472 2.96677C9.45718 2.5307 9.05207 2.35569 9.07033 2.76397C9.07641 2.8767 9.12393 2.93965 9.17683 3.00009C9.11144 2.98376 8.97258 2.91887 8.85998 2.85489C8.23308 2.47708 8.47995 1.55131 9.13728 1.83162V1.83162Z" fill="#FCDD09"/>
<path d="M16.0677 0.708386C15.827 1.10545 15.7982 1.42306 15.9626 1.9715C16.0417 2.22744 16.1286 2.60964 16.1651 2.81683C16.2138 3.10933 16.2087 3.13713 16.2155 3.20073C16.2764 3.20073 16.4147 3.20096 16.4787 3.20058C16.4879 3.09931 16.4953 2.98243 16.5169 2.8217C16.5421 2.63429 16.6167 2.24233 16.697 1.97009C16.8575 1.42607 16.8468 1.09229 16.5972 0.71448C16.5059 0.574323 16.3842 0.458542 16.3294 0.458542C16.2747 0.458542 16.1507 0.565551 16.0677 0.708386Z" fill="#FCDD09"/>
<path d="M17.2502 1.83182C16.9094 1.97807 16.7044 2.38294 16.5924 2.94089C16.5717 3.04566 16.5667 3.08264 16.5563 3.20072C16.6301 3.20102 16.6591 3.20152 16.731 3.20109C16.7467 3.12166 16.758 3.07972 16.7927 2.96697C16.9303 2.5309 17.3354 2.35589 17.3171 2.76417C17.3111 2.8769 17.2635 2.93985 17.2106 3.00028C17.276 2.98396 17.4149 2.91907 17.5275 2.85509C18.1544 2.47728 17.9075 1.55151 17.2502 1.83182V1.83182Z" fill="#FCDD09"/>
<path d="M15.8574 3.36527C16.1325 3.36686 16.6079 3.36971 16.8363 3.36812C16.8365 3.29187 16.8374 3.33078 16.8379 3.26917C16.6698 3.26735 16.0261 3.27036 15.8588 3.27036C15.8591 3.31022 15.8584 3.32952 15.8574 3.36527L15.8574 3.36527Z" fill="#FCDD09"/>
<path d="M15.9383 3.66554C15.8392 3.77255 15.6843 3.85255 15.6843 3.85255C15.6843 3.85255 15.8213 3.86797 15.9491 3.85864C16.0769 3.84931 16.1478 3.83334 16.2233 3.79661C16.2028 3.94907 16.2016 4.0963 16.2016 4.0963C16.2202 4.2925 16.2412 4.34271 16.2837 4.4382C16.3414 4.51786 16.3749 4.5183 16.4173 4.43418C16.4631 4.34 16.4933 4.24314 16.5028 4.09538C16.4995 3.98464 16.4933 3.93389 16.4671 3.79851C16.5556 3.83682 16.6114 3.84675 16.7433 3.85864C16.8783 3.87081 17.0024 3.86484 17.0024 3.86484C17.0024 3.86484 16.82 3.77323 16.7398 3.66087C16.6606 3.54995 16.6775 3.56881 16.6199 3.42593C16.5499 3.42261 16.195 3.42587 16.0824 3.42587C16.0207 3.55614 16.0145 3.58334 15.9383 3.66554V3.66554Z" fill="#FCDD09"/>
<path d="M15.4373 1.83162C15.7781 1.97787 15.9831 2.38274 16.0951 2.94069C16.1158 3.04546 16.1208 3.08244 16.1312 3.20052C16.0574 3.20082 16.0284 3.20133 15.9565 3.20089C15.9408 3.12146 15.9294 3.07952 15.8947 2.96677C15.7572 2.5307 15.3521 2.35569 15.3703 2.76397C15.3764 2.8767 15.4239 2.93965 15.4768 3.00009C15.4114 2.98376 15.2726 2.91887 15.16 2.85489C14.5331 2.47708 14.7799 1.55131 15.4373 1.83162V1.83162Z" fill="#FCDD09"/>
<path d="M7.11822 8.27089C7.25037 8.33257 7.4191 8.38118 7.5042 8.38405C7.60476 8.38744 7.57807 8.36269 7.39038 8.2896C7.24345 8.23219 7.06774 8.13565 6.98975 8.07579C6.84993 7.96139 6.84993 7.96139 6.86458 8.06204C6.87295 8.11955 6.97834 8.20894 7.11822 8.27089Z" fill="#008000"/>
<path d="M6.29622 7.08198C6.38143 7.42323 6.73444 8.05088 6.85617 8.07526C6.96572 8.09354 6.96572 8.08745 6.87443 7.98385C6.72227 7.80713 6.3936 7.16119 6.3936 7.03932C6.3936 6.97229 6.36317 6.92354 6.32665 6.92354C6.28405 6.92354 6.27188 6.98448 6.29622 7.08198Z" fill="#008000"/>
<path d="M4.07124 8.09264C3.96778 8.17186 3.97386 8.17796 4.19906 8.14139C4.33296 8.12311 4.52772 8.08655 4.6251 8.06217C4.78335 8.01952 4.77118 8.01342 4.49729 8.00733C4.3147 8.00124 4.14428 8.0378 4.07124 8.09264Z" fill="#008000"/>
<path d="M2.5592 7.45193C3.56345 7.63475 5.57803 8.31115 5.4563 8.42693C5.42587 8.4574 4.85984 8.31725 4.78072 8.2624C4.75029 8.23193 4.45205 8.24412 4.12339 8.28678C3.50867 8.35381 3.4052 8.40865 3.41737 8.6585C3.42346 8.78037 3.42346 8.78037 3.45389 8.6585C3.50867 8.43303 3.59996 8.38428 3.94689 8.38428C4.32424 8.38428 5.35892 8.53662 5.8154 8.6585C6.42404 8.82912 6.4423 8.82912 6.24145 8.71944C5.97973 8.57318 5.58412 8.30506 5.51108 8.22584C5.37718 8.0735 2.94872 7.40318 2.59571 7.41537C2.43138 7.42756 2.4253 7.42756 2.5592 7.45193Z" fill="#008000"/>
<path d="M6.12321 8.1527C6.17191 8.23801 6.64664 8.47567 6.68316 8.43911C6.70142 8.42083 6.64664 8.37208 6.57361 8.32942C6.49448 8.28676 6.39101 8.21973 6.34841 8.17098C6.25103 8.07958 6.06844 8.06129 6.12321 8.1527Z" fill="#008000"/>
<path d="M6.15983 8.73167C6.20852 8.81698 6.68326 9.05463 6.71978 9.01807C6.73804 8.99979 6.68326 8.95104 6.61022 8.90838C6.5311 8.86573 6.42763 8.7987 6.38503 8.74995C6.28765 8.65854 6.10506 8.64026 6.15983 8.73167Z" fill="#008000"/>
<path d="M5.47939 8.0061C5.48815 7.99763 5.62509 8.04312 5.78756 8.10629C5.95003 8.16947 6.1599 8.22916 6.25019 8.23505C6.40932 8.24214 6.97282 8.51056 6.96739 8.57511C6.96634 8.63543 6.11431 8.37489 5.81565 8.22314C5.4572 8.04449 5.44874 8.03573 5.47939 8.0061Z" fill="#008000"/>
<path d="M6.4875 8.45146C6.37396 8.49539 6.25978 8.57485 6.2243 8.6317C6.18237 8.69888 6.21785 8.69952 6.3643 8.62587C6.47913 8.56837 6.64493 8.5212 6.73589 8.51344C6.90621 8.50503 6.90621 8.50503 6.79782 8.43722C6.73588 8.39847 6.60427 8.40235 6.4875 8.45146Z" fill="#008000"/>
<path d="M3.63911 6.39773C3.82779 6.75726 4.59467 7.58601 5.02072 7.90288C5.13636 7.9882 5.34329 8.07351 5.47111 8.09179L5.70848 8.12835L5.53197 7.93335C5.24591 7.62257 4.80769 7.02538 4.66771 6.76335C4.51555 6.47694 4.49729 6.55007 4.6251 6.91569C4.67379 7.06194 4.86856 7.35444 5.05724 7.56163C5.24591 7.77491 5.36764 7.95163 5.33721 7.95163C5.25809 7.95163 4.74683 7.34835 4.38165 6.82429C3.98604 6.25147 3.96778 6.23319 4.07733 6.55007C4.13211 6.70241 4.25384 6.92788 4.3573 7.04976C4.45469 7.17773 4.51555 7.28132 4.48512 7.28132C4.42425 7.28132 4.15645 6.97663 3.8217 6.53788C3.73041 6.40991 3.60259 6.24538 3.54782 6.17226C3.48695 6.09304 3.52956 6.19663 3.63911 6.39773Z" fill="#008000"/>
<path d="M6.21813 9.4594C5.75941 9.37748 5.54126 9.45067 5.35571 9.73698L5.19739 9.98288L5.401 9.78962C5.67761 9.5207 5.87863 9.49475 6.37583 9.63941C6.60842 9.70828 6.80568 9.75329 6.81249 9.74318C6.84992 9.68761 6.45764 9.49619 6.21813 9.4594Z" fill="#008000"/>
<path d="M6.34317 9.58736C5.91713 9.77626 5.77714 9.95908 5.78323 10.3003L5.78931 10.5928L5.85018 10.3186C5.9293 9.9408 6.08146 9.80673 6.57446 9.6483C6.80574 9.57517 6.99441 9.50205 6.99441 9.48986C6.99441 9.42283 6.56228 9.48376 6.34317 9.58736Z" fill="#008000"/>
<path d="M6.26231 10.1105C6.18927 10.208 6.1345 10.336 6.1345 10.403C6.1345 10.4822 6.16493 10.464 6.25014 10.3238C6.31709 10.2141 6.43273 10.0862 6.50576 10.0313C6.64575 9.93381 6.64575 9.93381 6.51794 9.93381C6.4449 9.93381 6.33535 10.0069 6.26231 10.1105Z" fill="#008000"/>
<path d="M12.8427 11.1036C13.0403 11.1894 14.0657 11.4483 14.7912 11.661C15.5167 11.8737 16.365 12.1186 16.5527 12.145C16.8211 11.5593 16.3327 12.6548 16.6114 11.9909C16.2491 11.8985 14.8209 11.5621 14.2477 11.3972C13.7536 11.2586 13.0527 11.0426 12.8731 11.003C12.6936 10.9634 12.6911 11.0376 12.8427 11.1036Z" fill="#008000"/>
<path d="M12.968 10.9516C13.1686 11.0304 14.2023 11.2533 14.9348 11.4405C15.6673 11.6278 16.5236 11.8429 16.7122 11.8627C16.96 11.268 16.51 12.3798 16.7655 11.7066C16.4001 11.627 14.961 11.3406 14.3825 11.1958C13.8838 11.0747 13.1758 10.8832 12.995 10.8499C12.8142 10.8167 12.8143 10.8909 12.968 10.9516Z" fill="#008000"/>
<path d="M12.6842 11.2141C12.877 11.3101 13.8875 11.6224 14.6009 11.8728C15.3143 12.1233 16.1486 12.4123 16.3347 12.4484C16.6333 11.8776 16.0883 12.946 16.4014 12.2976C16.0444 12.1864 14.6357 11.7756 14.0719 11.5809C13.5857 11.4166 12.897 11.1641 12.7198 11.1152C12.5426 11.0663 12.5363 11.1403 12.6842 11.2141Z" fill="#008000"/>
<path d="M12.5611 11.3389C12.7487 11.4448 13.7414 11.8096 14.4408 12.0971C15.1401 12.3846 15.9581 12.7169 16.1421 12.7628C16.4702 12.2085 15.8701 13.2468 16.2166 12.6157C15.8659 12.4859 14.4806 12.0018 13.9278 11.7779C13.4508 11.5884 12.7763 11.3001 12.6019 11.242C12.4275 11.1838 12.4173 11.2574 12.5611 11.3389Z" fill="#008000"/>
<path d="M12.4452 11.4961C12.629 11.6085 13.6084 12.0078 14.2973 12.3195C14.9861 12.6313 15.7921 12.992 15.9744 13.0443C16.3215 12.5017 15.6856 13.5184 16.0539 12.8998C15.7079 12.7579 14.3404 12.2257 13.7957 11.9825C13.3257 11.7765 12.6616 11.4649 12.4893 11.4007C12.317 11.3365 12.3043 11.4096 12.4452 11.4961Z" fill="#008000"/>
<path d="M10.392 13.0757C10.6746 13.2728 10.83 13.5467 10.8146 13.8294L10.8042 14.0629L10.8969 13.8332C10.9984 13.5928 10.9844 13.2288 10.8646 12.9591L10.7947 12.8019L11.0167 12.8987C11.3341 13.0327 11.543 13.2683 11.5866 13.5481L11.6249 13.7787L11.6679 13.5346C11.7173 13.2783 11.6281 12.9253 11.4548 12.6865L11.3537 12.5472L11.5911 12.5957C11.9293 12.6607 12.1825 12.8476 12.2834 13.1123L12.3687 13.3299L12.3601 13.0821C12.3551 12.8212 12.1945 12.4944 11.9754 12.2969L11.8477 12.1817L12.0899 12.1797C12.4342 12.1729 12.7208 12.303 12.8744 12.541L13.0029 12.736L12.9431 12.4955C12.8841 12.2414 12.6591 11.9551 12.4039 11.8075L12.2549 11.7214L12.4915 11.6691C12.8268 11.5907 13.1342 11.6584 13.3338 11.8591L13.5001 12.0231L13.3915 11.8003C13.281 11.564 13.0016 11.3308 12.7212 11.2396L12.5577 11.1865L12.7782 11.086C13.0899 10.9395 13.4046 10.9418 13.6415 11.0965L13.8383 11.2223L13.6859 11.027C13.5287 10.8188 13.2069 10.6489 12.9137 10.6181L12.7428 10.6002L12.9376 10.456C13.2121 10.2478 13.5204 10.1844 13.7843 10.2865L14.0028 10.3686L13.8132 10.2093C13.6162 10.0384 13.2662 9.93916 12.973 9.97006L12.8021 9.988L12.9627 9.80643C13.188 9.5457 13.4764 9.41954 13.7557 9.4645L13.9865 9.49924L13.7679 9.38292C13.5397 9.25676 13.1768 9.23259 12.8964 9.32378L12.7329 9.37693L12.8523 9.16596C13.0185 8.86399 13.2744 8.68058 13.5569 8.66632L13.7899 8.65234L13.5519 8.58405C13.3025 8.50816 12.9425 8.56011 12.6872 8.70759L12.5383 8.79367L12.6113 8.56242C12.7112 8.23248 12.9234 7.99984 13.1968 7.92709L13.4218 7.86488L13.1749 7.84762C12.9152 7.82526 12.5738 7.95096 12.3547 8.14843L12.227 8.26364L12.2503 8.02228C12.2795 7.67866 12.4387 7.40697 12.6911 7.27886L12.8983 7.17122L12.6531 7.20569C12.3944 7.23789 12.0866 7.43195 11.9134 7.6707L11.8123 7.81L11.7851 7.56902C11.7423 7.22694 11.8416 6.9279 12.0618 6.75017L12.2421 6.60172L12.0094 6.68646C11.7631 6.7718 11.5024 7.0257 11.3825 7.2953L11.3125 7.45263L11.2358 7.22256C11.1229 6.89685 11.158 6.5837 11.3365 6.36401L11.482 6.18129L11.2721 6.31256C11.0489 6.44732 10.8465 6.74994 10.7852 7.03861L10.7494 7.20704L10.6266 6.99803C10.4485 6.70283 10.4178 6.38933 10.5468 6.13721L10.6512 5.9282L10.4731 6.10028C10.2827 6.27862 10.1476 6.61683 10.1476 6.91191V7.08403L9.98409 6.90515C9.74866 6.6536 9.65351 6.35321 9.72728 6.0798L9.78592 5.85358L9.64748 6.05909C9.4983 6.27305 9.43639 6.63197 9.49768 6.92071L9.53338 7.08906L9.33629 6.94811C9.05369 6.75101 8.89829 6.47706 8.91368 6.19424L8.92408 5.96075L8.83131 6.19059C8.72987 6.43099 8.74384 6.7949 8.86367 7.06451L8.9336 7.22183L8.71153 7.12499C8.39419 6.99103 8.18525 6.75543 8.14161 6.47564L8.10334 6.24508L8.06035 6.48913C8.01104 6.74537 8.10019 7.09852 8.27352 7.33727L8.37454 7.47649L8.13723 7.42799C7.79902 7.36301 7.54574 7.1761 7.44492 6.91141L7.3596 6.69387L7.36823 6.94158C7.37318 7.20254 7.53381 7.52933 7.75285 7.72677L7.88062 7.84197L7.63839 7.84393C7.29408 7.85077 7.00749 7.72062 6.85393 7.48279L6.72531 7.28773L6.78519 7.52817C6.84422 7.78241 7.06917 8.06866 7.32444 8.21622L7.47332 8.3023L7.23681 8.3546C6.90144 8.43295 6.59409 8.36536 6.39451 8.16465L6.2282 8.00064L6.3367 8.22341C6.44724 8.45977 6.72673 8.69288 7.00707 8.78407L7.17061 8.83729L6.95011 8.9377C6.63834 9.08422 6.32365 9.08196 6.08673 8.92721L5.88999 8.8014L6.04236 8.99669C6.19957 9.20489 6.52135 9.37474 6.81451 9.40559L6.9855 9.42362L6.79067 9.56772C6.51614 9.77592 6.20786 9.83925 5.94399 9.73719L5.72541 9.65514L5.91501 9.81442C6.11202 9.98539 6.46206 10.0845 6.75521 10.0537L6.9262 10.0357L6.76557 10.2172C6.54028 10.478 6.25188 10.6041 5.97258 10.5592L5.74176 10.5244L5.96034 10.6408C6.18855 10.767 6.55152 10.7911 6.83186 10.7L6.9954 10.6468L6.876 10.8578C6.70977 11.1597 6.45388 11.3432 6.17136 11.3574L5.93835 11.3713L6.17631 11.4397C6.42571 11.5156 6.78576 11.4636 7.04103 11.3161L7.18995 11.23L7.11699 11.4612C7.01708 11.7913 6.80491 12.0239 6.53149 12.0966L6.30646 12.1589L6.5534 12.1761C6.81313 12.1984 7.15453 12.0727 7.37357 11.8752L7.50134 11.76L7.47796 12.0015C7.44879 12.345 7.28955 12.6168 7.0372 12.7448L6.83001 12.8525L7.07515 12.8181C7.33384 12.7859 7.64166 12.5917 7.81491 12.353L7.91597 12.2137L7.94325 12.4547C7.98605 12.7968 7.88672 13.0958 7.66649 13.2736L7.48618 13.422L7.7188 13.3373C7.96513 13.252 8.22593 12.998 8.34583 12.7284L8.41572 12.5711L8.49245 12.8011C8.60536 13.1269 8.57028 13.44 8.39177 13.6597L8.24623 13.8425L8.45618 13.7111C8.6794 13.5764 8.88178 13.2737 8.94308 12.985L8.97881 12.8167L9.10163 13.0257C9.27972 13.3209 9.31042 13.6344 9.18146 13.8865L9.07707 14.0956L9.25515 13.9234C9.44552 13.7451 9.58063 13.4069 9.58063 13.1118V12.9397L9.74417 13.1186C9.9796 13.3702 10.0747 13.6705 10.001 13.9439L9.94229 14.1702L10.0807 13.9646C10.2299 13.7506 10.2918 13.3918 10.2306 13.1031L10.1948 12.9347L10.392 13.0757Z" fill="#FCDD09"/>
</g>
<defs>
<clipPath id="clip0_270_60977">
<rect width="20" height="15" fill="white"/>
</clipPath>
</defs>
</svg>
