<svg xmlns="http://www.w3.org/2000/svg" width="32" height="32" viewBox="0 0 24 24"><!-- Icon from Material Design Icons by Pictogrammers - https://github.com/Templarian/MaterialDesign/blob/master/LICENSE --><path fill="currentColor" d="M2 11h1.67c.41-1.17 1.52-2 2.83-2a3 3 0 0 1 3 3c0 .65-.21 1.25-.56 1.74l1.13 1.61L13.11 4l1.5 2.13l2.09 2.98l.8-.11c1.31 0 2.42.83 2.83 2H22v2h-1.67a2.99 2.99 0 0 1-2.83 2a3 3 0 0 1-3-3c0-.65.21-1.25.56-1.74l-1.13-1.61L10.89 20L7.3 14.89A2.99 2.99 0 0 1 3.67 13H2zm15.5-.5A1.5 1.5 0 0 0 16 12a1.5 1.5 0 0 0 1.5 1.5A1.5 1.5 0 0 0 19 12a1.5 1.5 0 0 0-1.5-1.5m-11 0A1.5 1.5 0 0 0 5 12a1.5 1.5 0 0 0 1.5 1.5A1.5 1.5 0 0 0 8 12a1.5 1.5 0 0 0-1.5-1.5"/></svg>