<svg width="14143" height="14143" viewBox="0 0 14143 14143" fill="none" xmlns="http://www.w3.org/2000/svg"><path fill-rule="evenodd" clip-rule="evenodd" d="M13435 6363.96c390.6 390.52 390.6 1023.69 0 1414.21L7778.18 13435c-390.53 390.6-1023.69 390.6-1414.22 0L5303.3 12374.4 707.107 7778.17c-390.523-390.52-390.524-1023.68 0-1414.21L1767.77 5303.3l4596.19 4596.19c390.53 390.51 1023.69 390.51 1414.22 0L9899.5 7778.17c390.5-390.52 390.5-1023.69 0-1414.21L5303.3 1767.77 6363.96 707.107c390.53-390.524 1023.69-390.525 1414.22 0L12374.4 5303.3z" fill="#888"/><path fill-rule="evenodd" clip-rule="evenodd" d="M707.107 6363.96c-390.525 390.53-390.524 1023.69 0 1414.21L6363.96 13435c390.53 390.6 1023.69 390.6 1414.21 0l1060.66-1060.6-4596.19-4596.23c-390.52-390.52-390.52-1023.68 0-1414.21l4596.19-4596.19L7778.17 707.107c-390.52-390.524-1023.69-390.524-1414.21 0z" fill="#AAA"/><path fill-rule="evenodd" clip-rule="evenodd" d="M7778.18 707.107c-390.53-390.525-1023.69-390.524-1414.22 0L707.107 6363.96c-390.524 390.53-390.524 1023.69.001 1414.21L1767.77 8838.83l4596.19-4596.19c390.53-390.52 1023.69-390.52 1414.22 0l4596.22 4596.19L13435 7778.17c390.6-390.52 390.6-1023.69 0-1414.21z" fill="#CCC"/></svg>