<svg xmlns:xlink="http://www.w3.org/1999/xlink" xmlns="http://www.w3.org/2000/svg" viewBox="0 0 48 48" width="172" height="172"><path d="M 39.960938 5.9804688 A 2.0002 2.0002 0 0 0 39.740234 6 L 31 6 A 2.0002 2.0002 0 1 0 31 10 L 35.171875 10 L 10 35.171875 L 10 31 A 2.0002 2.0002 0 1 0 6 31 L 6 39.753906 A 2.0002 2.0002 0 0 0 8.2597656 42 L 17 42 A 2.0002 2.0002 0 1 0 17 38 L 12.828125 38 L 38 12.828125 L 38 17 A 2.0002 2.0002 0 1 0 42 17 L 42 8.2460938 A 2.0002 2.0002 0 0 0 39.960938 5.9804688 z M 8 6 A 2.0002 2.0002 0 0 0 7.6171875 6.0371094 A 2.0002 2.0002 0 0 0 7.2734375 6.1386719 C 7.2615997 6.1432867 7.2500467 6.1474949 7.2382812 6.1523438 A 2.0002 2.0002 0 0 0 6.9140625 6.3222656 C 6.9069283 6.3268963 6.8996655 6.3312065 6.8925781 6.3359375 A 2.0002 2.0002 0 0 0 6.5976562 6.5761719 C 6.5939662 6.5798106 6.589606 6.5822643 6.5859375 6.5859375 C 6.5842493 6.5876257 6.5837121 6.5901042 6.5820312 6.5917969 A 2.0002 2.0002 0 0 0 6.3339844 6.8945312 C 6.3322166 6.8971884 6.3298787 6.89968 6.328125 6.9023438 A 2.0002 2.0002 0 0 0 6.1601562 7.2226562 C 6.1543298 7.2364493 6.148081 7.2497775 6.1425781 7.2636719 A 2.0002 2.0002 0 0 0 6.0429688 7.5957031 C 6.0405497 7.6074921 6.0373611 7.6190367 6.0351562 7.6308594 A 2.0002 2.0002 0 0 0 6 8 L 6 17 A 2.0002 2.0002 0 1 0 10 17 L 10 12.828125 L 19.757812 22.585938 L 22.585938 19.757812 L 12.828125 10 L 17 10 A 2.0002 2.0002 0 1 0 17 6 L 8 6 z M 28.242188 25.414062 L 25.414062 28.242188 L 35.171875 38 L 31 38 A 2.0002 2.0002 0 1 0 31 42 L 40 42 A 2.0002 2.0002 0 0 0 40.382812 41.962891 A 2.0002 2.0002 0 0 0 40.726562 41.861328 C 40.7384 41.856713 40.749953 41.852505 40.761719 41.847656 A 2.0002 2.0002 0 0 0 41.085938 41.677734 A 2.0002 2.0002 0 0 0 41.107422 41.664062 A 2.0002 2.0002 0 0 0 41.402344 41.423828 A 2.0002 2.0002 0 0 0 41.417969 41.408203 A 2.0002 2.0002 0 0 0 41.666016 41.105469 A 2.0002 2.0002 0 0 0 41.669922 41.099609 C 41.670413 41.098865 41.671385 41.098401 41.671875 41.097656 A 2.0002 2.0002 0 0 0 41.839844 40.777344 C 41.84567 40.763551 41.851919 40.750222 41.857422 40.736328 A 2.0002 2.0002 0 0 0 41.957031 40.404297 C 41.95945 40.392508 41.962639 40.380963 41.964844 40.369141 A 2.0002 2.0002 0 0 0 42 40 L 42 31 A 2.0002 2.0002 0 0 0 39.970703 28.972656 A 2.0002 2.0002 0 0 0 38 31 L 38 35.171875 L 28.242188 25.414062 z"></path></svg>