<svg width="32" height="32" viewBox="0 0 32 32" fill="none" xmlns="http://www.w3.org/2000/svg">
<path fill-rule="evenodd" clip-rule="evenodd" d="M31.2959 14.3004C32.2347 15.2391 32.2347 16.7609 31.2959 17.6995L17.6995 31.2959C16.7609 32.2347 15.239 32.2347 14.3004 31.2959L0.703977 17.6995C-0.234658 16.7609 -0.23466 15.2391 0.703977 14.3004L3.25332 11.7511L14.3004 22.7982C15.239 23.7368 16.7609 23.7368 17.6995 22.7982L22.7982 17.6995C23.7367 16.7609 23.7367 15.2391 22.7982 14.3004L11.7511 3.25331L14.3004 0.703979C15.239 -0.234658 16.7609 -0.234661 17.6995 0.703979L31.2959 14.3004Z" fill="#5456A7"/>
<path fill-rule="evenodd" clip-rule="evenodd" d="M0.703977 14.3004C-0.23466 15.2391 -0.234658 16.7609 0.703977 17.6995L14.3004 31.2959C15.239 32.2347 16.7609 32.2347 17.6995 31.2959L20.2488 28.7467L9.20174 17.6995C8.26311 16.7609 8.26311 15.2391 9.20174 14.3004L20.2488 3.25331L17.6995 0.703979C16.7609 -0.234661 15.239 -0.234658 14.3004 0.703979L0.703977 14.3004Z" fill="#7768B9"/>
<path fill-rule="evenodd" clip-rule="evenodd" d="M17.6995 0.703979C16.7609 -0.234661 15.239 -0.234658 14.3004 0.703979L0.703977 14.3004C-0.23466 15.2391 -0.234658 16.7609 0.703977 17.6995L3.25332 20.2488L14.3004 9.20174C15.239 8.26311 16.7609 8.26311 17.6995 9.20174L28.7466 20.2488L31.2959 17.6995C32.2347 16.7609 32.2347 15.2391 31.2959 14.3004L17.6995 0.703979Z" fill="#A68CDA"/>
</svg>
