<svg width="5223" height="653" viewBox="0 0 5223 653" fill="none" xmlns="http://www.w3.org/2000/svg">
  <path d="M0 326.5V653H392.5H785V457V261H588H391V326.5V392H522H653V456.5V521H392.5H132V326V131H458.5H785V65.5V-9.73046e-06H392.5H0V326.5Z" fill="white" />
  <path d="M914 65.5V131H1306.5H1699V65.5V-1.95205e-06H1306.5H914V65.5Z" fill="white" />
  <path d="M1828 326.5V653H2220.5H2613V326.5V-9.73046e-06H2220.5H1828V326.5ZM2481 326V521H2220.5H1960V326V131H2220.5H2481V326Z" fill="white" />
  <path d="M2742 0.69999C2742 1.19999 2809.3 74.4 2891.5 163.5C2973.7 252.6 3040.9 325.9 3040.7 326.3C3040.6 326.7 2973.4 400 2891.5 489.1C2809.5 578.2 2742.4 651.5 2742.2 652C2742 652.6 2776.1 653 2834.2 653H2926.5L3026.5 543.5C3081.5 483.2 3128.1 432.1 3130 429.9L3133.6 425.8L3237.9 539.4L3342.1 653H3434.7C3522 653 3527.2 652.9 3525.9 651.3C3525.1 650.3 3457.6 576.8 3375.8 487.8L3227 326L3377 163.5C3459.5 74.1 3527 0.79999 3527 0.49999C3527 0.19999 3485.4 -9.73046e-06 3434.6 -9.73046e-06H3342.3L3237.9 113.1L3133.6 226.3L3129.1 221.1C3126.5 218.3 3080 167.4 3025.5 108L2926.5 0.0999903L2834.3 -9.73046e-06C2783.5 -9.73046e-06 2742 0.29999 2742 0.69999Z" fill="white" />
  <path d="M3656 326.5V653H4048.5H4441V326.5V-9.73046e-06H4048.5H3656V326.5ZM4309 326V521H4048.5H3788V326V131H4048.5H4309V326Z" fill="white" />
  <path d="M4570 326.5V653H4636H4702V392V131H4962.5H5223V65.5V-9.73046e-06H4896.5H4570V326.5Z" fill="white" />
  <path d="M914 326V392H1306.5H1699V326V260H1306.5H914V326Z" fill="white" />
  <path d="M914 587V653H1306.5H1699V587V521H1306.5H914V587Z" fill="white" />
</svg>