<svg width="14143" height="14143" viewBox="0 0 14143 14143" fill="none" xmlns="http://www.w3.org/2000/svg">
  <path fill-rule="evenodd" clip-rule="evenodd" d="M13435 6363.96C13825.6 6754.48 13825.6 7387.65 13435 7778.17L7778.18 13435C7387.65 13825.6 6754.49 13825.6 6363.96 13435L5303.3 12374.4L707.107 7778.17C316.584 7387.65 316.583 6754.49 707.107 6363.96L1767.77 5303.3L6363.96 9899.49C6754.49 10290 7387.65 10290 7778.18 9899.49L9899.5 7778.17C10290 7387.65 10290 6754.48 9899.5 6363.96L5303.3 1767.77L6363.96 707.107C6754.49 316.583 7387.65 316.582 7778.18 707.107L12374.4 5303.3L13435 6363.96Z" fill="#5456A7" />
  <path fill-rule="evenodd" clip-rule="evenodd" d="M707.107 6363.96C316.582 6754.49 316.583 7387.65 707.107 7778.17L6363.96 13435C6754.49 13825.6 7387.65 13825.6 7778.17 13435L8838.83 12374.4L4242.64 7778.17C3852.12 7387.65 3852.12 6754.49 4242.64 6363.96L8838.83 1767.77L7778.17 707.107C7387.65 316.583 6754.48 316.583 6363.96 707.107L707.107 6363.96Z" fill="#6669D3" />
  <path fill-rule="evenodd" clip-rule="evenodd" d="M7778.18 707.107C7387.65 316.582 6754.49 316.583 6363.96 707.107L707.107 6363.96C316.583 6754.49 316.583 7387.65 707.108 7778.17L1767.77 8838.83L6363.96 4242.64C6754.49 3852.12 7387.65 3852.12 7778.18 4242.64L12374.4 8838.83L13435 7778.17C13825.6 7387.65 13825.6 6754.48 13435 6363.96L7778.18 707.107Z" fill="#868AFF" />
</svg>